<svg xmlns="http://www.w3.org/2000/svg" width="125" height="93.609" viewBox="0 0 125 93.609">
  <g id="WHITE_LOGO_AS_GRAPHIC_DESIGN" data-name="WHITE_LOGO AS GRAPHIC DESIGN" transform="translate(0.033 0.008)">
    <path id="Tracé_9" d="M15.126,73.546,47.61,71.922a29.207,29.207,0,0,0,8.121-9.37l.5,9,6-.25c-.875-18.741-1.749-37.357-2.749-56.1l-6,.25.625,13.119C48.734,19.448,38.739,15.45,28.994,15.95,12.252,16.7-.866,29.693.008,48.059.633,59.678,6.63,68.674,15.126,73.546M29.244,21.572c33.359-1.624,35.733,48.476,2.5,49.976-13.618.625-24.988-8.871-25.737-23.863S15.751,22.2,29.244,21.572" transform="translate(0 3.793)" fill="#fff"/>
    <path id="Tracé_10" d="M86.087,68.887c-8,.375-17.117-2.249-22.364-9.121L59.6,63.889a22.768,22.768,0,0,0,8.121,6.872l36.607-1.749a14.393,14.393,0,0,0,5.747-12.369C109.95,42.775,95.208,41.775,84.463,40.4c-7.621-1-18.116-2-18.741-10-.625-7.621,8.121-11.619,17.491-11.869,6.622-.375,12.619.375,18.991,5.372l3.5-4.123c-6.247-5.247-13.993-7.371-22.614-6.872-12.119.5-23.613,6.122-22.989,17.866.75,11.994,12.369,13.618,24.113,14.993,9.87,1.124,19.865,2.249,20.115,10.87,0,9.5-10.995,11.994-18.241,12.244" transform="translate(14.872 3.205)" fill="#fff"/>
    <path id="Tracé_11" d="M57.776,14.995a6.546,6.546,0,0,0,1.749-4.5,7.312,7.312,0,0,0-.25-1.624A3.958,3.958,0,0,1,56.4,10a5.443,5.443,0,0,1-3.623-1.374A4.448,4.448,0,0,1,51.4,5a5,5,0,0,1,1.5-3.623A5.129,5.129,0,0,1,56.4,0a5.075,5.075,0,0,1,4.623,2.5A10.48,10.48,0,0,1,62.4,7.623a12.371,12.371,0,0,1-2,7,13.65,13.65,0,0,1-6,5l-.75-1.374a9.4,9.4,0,0,0,4.123-3.248" transform="translate(12.823)" fill="#fff"/>
    <path id="Tracé_12" d="M7.5,71.927,9.124,71.8l.125,3.373a5.123,5.123,0,0,1-3.873,1.749,5.077,5.077,0,0,1-3.748-1.249A4.649,4.649,0,0,1,0,72.177a4.706,4.706,0,0,1,1.374-3.748,4.857,4.857,0,0,1,3.5-1.624A4.856,4.856,0,0,1,8.5,67.929L7.625,69.3A5.064,5.064,0,0,0,6.5,68.679,2.848,2.848,0,0,0,5.126,68.3a3.33,3.33,0,0,0-2.5,1.124,3.375,3.375,0,0,0-.875,2.624,3.145,3.145,0,0,0,1.124,2.5,3.3,3.3,0,0,0,2.374.875,4.113,4.113,0,0,0,2.374-.75Z" transform="translate(0.004 16.657)" fill="#fff"/>
    <path id="Tracé_13" d="M16.921,69.48a2.978,2.978,0,0,1-2,3.248l2.749,3.5-2.124.125-2.5-3.248-2.249.125.125,3.248L9.3,76.6l-.5-9.87,3.748-.125a5.845,5.845,0,0,1,3.248.625,2.672,2.672,0,0,1,1.124,2.249m-2.124,1.5a1.879,1.879,0,0,0,.5-1.374,1.269,1.269,0,0,0-.625-1.249,3.276,3.276,0,0,0-1.874-.25l-2.124.125.125,3.5,2.124-.125a3.367,3.367,0,0,0,1.874-.625" transform="translate(2.203 16.605)" fill="#fff"/>
    <path id="Tracé_14" d="M19.024,73.871l-.875,2.249-1.749.125,3.873-10.12L22.022,66l4.873,9.62-1.749.125L24.021,73.5Zm4.248-1.749-2-4-1.624,4.248Z" transform="translate(4.098 16.462)" fill="#fff"/>
    <path id="Tracé_15" d="M32.172,66.444A3.033,3.033,0,0,1,33.3,69.068a2.942,2.942,0,0,1-1,2.624,5.569,5.569,0,0,1-3.248,1l-1.749.125.125,2.874-1.624.125-.5-9.87,3.373-.125a4.707,4.707,0,0,1,3.5.625M31.3,70.567a1.9,1.9,0,0,0,.375-1.624,1.568,1.568,0,0,0-.75-1.374,5.659,5.659,0,0,0-2-.375l-1.624.125.25,4,2-.125a2.052,2.052,0,0,0,1.749-.625" transform="translate(6.318 16.393)" fill="#fff"/>
    <path id="Tracé_16" d="M33.7,75.47l-.5-9.87,1.624-.125.25,4.248,4.873-.25-.25-4.248,1.624-.125.5,9.87L40.2,75.1l-.25-4-4.873.25.25,4Z" transform="translate(8.288 16.237)" fill="#fff"/>
    <rect id="Rectangle_2" width="1.624" height="9.87" transform="translate(52.489 81.259) rotate(-2.808)" fill="#fff"/>
    <path id="Tracé_17" d="M50.551,73.149a3.327,3.327,0,0,0,1.5-.375,4.892,4.892,0,0,0,1.249-1l1.124,1a4.8,4.8,0,0,1-3.748,1.874A5.077,5.077,0,0,1,46.928,73.4,4.916,4.916,0,0,1,45.3,69.776a4.706,4.706,0,0,1,1.374-3.748A5.194,5.194,0,0,1,50.426,64.4,4.908,4.908,0,0,1,54.3,65.9l-1,1.249a5.159,5.159,0,0,0-1.374-.875,6.271,6.271,0,0,0-1.5-.25,3.33,3.33,0,0,0-2.5,1.124,3.549,3.549,0,0,0,.25,5,2.4,2.4,0,0,0,2.374,1" transform="translate(11.302 16.06)" fill="#fff"/>
    <path id="Tracé_18" d="M64.5,65.329a5.286,5.286,0,0,1,.375,7.246,5.637,5.637,0,0,1-4.123,1.5L57.5,74.2,57,64.33l3.373-.125A6.289,6.289,0,0,1,64.5,65.329m-.125,3.623c-.125-2.249-1.5-3.373-4-3.248l-1.624.125.375,6.747L61,72.451a4.366,4.366,0,0,0,2.749-1,4.152,4.152,0,0,0,.625-2.5" transform="translate(14.223 16.008)" fill="#fff"/>
    <path id="Tracé_19" d="M72.647,63.6l.125,1.624-5.247.25.125,2.624,4.748-.25.125,1.5-4.748.25.125,2.624,5.5-.25.125,1.624L66.4,73.97l-.5-9.87Z" transform="translate(16.443 15.863)" fill="#fff"/>
    <path id="Tracé_20" d="M76.253,64.824a1.744,1.744,0,0,0-1.124.375c-.25.25-.5.5-.375.875a1.052,1.052,0,0,0,.5.875,12.281,12.281,0,0,0,2,.625,5.476,5.476,0,0,1,2.374.875,2.248,2.248,0,0,1,.875,1.874,2.574,2.574,0,0,1-.875,2.124,4.824,4.824,0,0,1-2.5,1A5.534,5.534,0,0,1,73,72.071L74,70.7a4.8,4.8,0,0,0,3.123,1.124,2.111,2.111,0,0,0,1.249-.375,1.036,1.036,0,0,0,.375-1,1.265,1.265,0,0,0-.5-.875,6.185,6.185,0,0,0-1.624-.5C76,68.947,75.5,68.822,75,68.7a2.511,2.511,0,0,1-1-.5,2.608,2.608,0,0,1-1-2,2.26,2.26,0,0,1,.875-2.124,4.261,4.261,0,0,1,2.374-.875,4.856,4.856,0,0,1,1.874.25,3.872,3.872,0,0,1,1.624.75l-.875,1.249a3.908,3.908,0,0,0-1.249-.625H76.253" transform="translate(18.209 15.763)" fill="#fff"/>
    <path id="Tracé_21" d="M80.3,63.225l1.624-.125.5,9.87L80.8,73.1Z" transform="translate(20.034 15.739)" fill="#fff"/>
    <path id="Tracé_22" d="M91,67.852l1.624-.125.125,3.373a5.627,5.627,0,0,1-7.621.5A4.916,4.916,0,0,1,83.5,67.977a4.706,4.706,0,0,1,1.374-3.748,5.32,5.32,0,0,1,7.122-.5L91.125,65.1A5.064,5.064,0,0,0,90,64.479a5.6,5.6,0,0,0-1.374-.125,3.33,3.33,0,0,0-2.5,1.124,3.375,3.375,0,0,0-.875,2.624,3.145,3.145,0,0,0,1.124,2.5,3.3,3.3,0,0,0,2.374.875,4.113,4.113,0,0,0,2.374-.75Z" transform="translate(20.828 15.609)" fill="#fff"/>
    <path id="Tracé_23" d="M99.746,62.325l1.624-.125.5,9.87-1.749.125-5.872-6.872.375,7.246L93,72.695l-.5-9.87,1.624-.125,6.122,7Z" transform="translate(23.077 15.514)" fill="#fff"/>
  </g>
</svg>
